# xmcd CD database file
#
# Track frame offsets:
#	150
#	14968
#	26624
#	41980
#	53414
#	67858
#	80027
#	91932
#	106018
#	117021
#	128760
#	141769
#	154881
#	166730
#	180508
#	192040
#	204918
#	218716
#	229409
#	241823
#
# Disc length: 3388 seconds
#
# Revision: 0
# Processed by: cddbd v1.5.1PL0 Copyright (c) Steve Scherf et al.
# Submitted via: CDex 1.51
#
DISCID=040d3a14
DTITLE=Reinhardt-Grappelli - Reinhardt-Grappelli
DYEAR=2005
DGENRE=Jazz
TTITLE0=NUAGES
TTITLE1=HOW HIGH THE MOON
TTITLE2=CHICAGO
TTITLE3=TIGER RAG
TTITLE4=GEORGIA ON MY MIND
TTITLE5=NIGHT AND DAY
TTITLE6=OL'MAN RIVER
TTITLE7=SWEET GEOGIA BROWN
TTITLE8=SWING
TTITLE9=THE CONTINENTAL
TTITLE10=AIN'T MISBEHAVING
TTITLE11=DJANGOLOGY
TTITLE12=MINOR SWING
TTITLE13=SWANEE RIVER
TTITLE14=DINAH
TTITLE15=CHARLESTON
TTITLE16=SHEIK OF ARABY
TTITLE17=SOME OF THESE DAYS
TTITLE18=LAMBETH WALK
TTITLE19=ECHOES OF FRANCE (LA MARSEILLAISE)
EXTD=YEAR: 2005
EXTT0=
EXTT1=
EXTT2=
EXTT3=
EXTT4=
EXTT5=
EXTT6=
EXTT7=
EXTT8=
EXTT9=
EXTT10=
EXTT11=
EXTT12=
EXTT13=
EXTT14=
EXTT15=
EXTT16=
EXTT17=
EXTT18=
EXTT19=
PLAYORDER=
